<?xml version="1.0" encoding="UTF-8"?><svg id="a" xmlns="http://www.w3.org/2000/svg" viewBox="0 0 2046.61 2046.61"><defs><style>.b{fill:#0088c2;}.c{fill:#12acea;}</style></defs><path class="b" d="M1161.84,1689.25c-87.15,18.54-177.28,18.87-264.25,2.44-95.35-18.02-184.8-57.02-263.84-112.59-120.91-85.01-211.51-206.88-257.26-347.18-43.08-132.12-44.06-272.6-3.56-405.1,63.18-206.66,222.65-373.44,426.39-445.44,157.47-55.64,331.13-50.66,485.53,14.41,108.17,45.59,202.37,118.83,274.6,211.4,170.21,218.15,191.59,516.74,52.04,755.87-97.07,166.33-260.51,285.97-449.65,326.2ZM1561.19,1303.66c-49.48,70.62-147.22,96.16-222.64,50.71,34.24-5.96,64.04-23.98,83.33-52.2,27.15-39.72,25.78-94.07-3.52-132.18-23.64-30.76-61.34-46.22-99.86-44.56-82.25,3.55-146.5,67.93-202.21,122.24l-86.82,84.62c-28.52,27.8-59.97,51.85-93.27,73.56-58.39,38.07-123.09,63-192.63,71.61-77.47,9.59-137.6-10-145.26-9.79-.32,0-.11.48.13.7l1.36,1.26c17.79,16.48,35.42,32.45,55.2,46.63l36.04,25.85c25.22.32,48.59.1,72.9-2.02,89.5-7.83,173.52-40.85,244.6-95.76,30.33-23.43,58.51-49.25,84.64-77.48l63.45-68.54c25.93-28.01,65.37-64.82,104.14-74.59-9.75,22.69-12.49,45.63-9.72,69.47,6.04,52.07,38.14,95.43,85.73,117.18,57.59,26.32,119.73,17.99,174.6-11.41,125.54-162.9,162.1-375.73,96.41-571.24-38.35-114.15-111.5-214.45-203.76-287.9-223.37-177.84-539.33-177.28-762.35.85-137.26,109.64-223.91,270.21-233.86,449.06-4.31,77.48,5.81,154.32,31.51,229.07l202.57-311.85,48.48,47.78,168.68-282.45,153.58,232.98,49.6-48.13,120.6,179.71c-50.65,33.77-97.72,75.3-142.09,115.61-97.24,88.33-201.61,175.83-334.73,199.3-83.12,14.66-155.98-4.19-229.34-45.81,11.4,24.4,25.4,45.37,39.9,67.35,67.45,26.7,140.88,33.28,212.52,18.38,48.83-10.15,95.39-27.9,139.21-51.71,71.77-39.01,123.3-85.26,183.36-139.12l71.66-64.27c24.16-21.66,49.61-40.52,77.1-57.72,73.52-45.99,155.76-64.3,240.5-40.09,40.6,11.6,77.36,33.46,105.2,65.11,48.54,55.2,58.61,137.64,15.06,199.79ZM743.99,1040.76l45.24-56.32,69.59,135,.14-368.63-161.01,267.43-53.52-51.87-.12,200.31,99.68-125.93Z"/><path class="c" d="M1372.13,695.65c6.84,39.05-10.53,76.9-42.64,97.25-32.88,20.83-76.28,19.49-107.01-3.84-39.81-30.22-50.87-84.27-25.23-126.3,25.48-41.77,78.43-58.54,123.23-36.37,26.97,13.35,46.35,38.99,51.66,69.25Z"/></svg>